<svg xmlns="http://www.w3.org/2000/svg" viewBox="0 0 400 500">
  <style>
    .title { font: bold 16px sans-serif; fill: #333; }
    .label { font: 12px sans-serif; fill: #666; }
    .box { fill: #e3f2fd; stroke: #1976d2; stroke-width: 2; }
    .head { fill: #ffecb3; stroke: #ffa000; stroke-width: 2; }
    .torso { fill: #c8e6c9; stroke: #388e3c; stroke-width: 2; }
    .limb { fill: #f3e5f5; stroke: #7b1fa2; stroke-width: 2; }
  </style>

  <!-- Title -->
  <text x="200" y="30" class="title" text-anchor="middle">Humanoid Robot Architecture</text>

  <!-- Head -->
  <ellipse cx="200" cy="80" rx="40" ry="35" class="head"/>
  <text x="200" y="85" class="label" text-anchor="middle">Head</text>
  <text x="200" y="100" class="label" text-anchor="middle">(Cameras, Mics)</text>

  <!-- Torso -->
  <rect x="150" y="120" width="100" height="120" rx="10" class="torso"/>
  <text x="200" y="165" class="label" text-anchor="middle">Torso</text>
  <text x="200" y="180" class="label" text-anchor="middle">(CPU, Battery)</text>
  <text x="200" y="195" class="label" text-anchor="middle">(IMU)</text>

  <!-- Left Arm -->
  <rect x="80" y="130" width="60" height="100" rx="5" class="limb"/>
  <text x="110" y="175" class="label" text-anchor="middle">L-Arm</text>
  <text x="110" y="190" class="label" text-anchor="middle">7 DOF</text>

  <!-- Right Arm -->
  <rect x="260" y="130" width="60" height="100" rx="5" class="limb"/>
  <text x="290" y="175" class="label" text-anchor="middle">R-Arm</text>
  <text x="290" y="190" class="label" text-anchor="middle">7 DOF</text>

  <!-- Left Leg -->
  <rect x="155" y="250" width="40" height="140" rx="5" class="limb"/>
  <text x="175" y="310" class="label" text-anchor="middle">L-Leg</text>
  <text x="175" y="325" class="label" text-anchor="middle">6 DOF</text>

  <!-- Right Leg -->
  <rect x="205" y="250" width="40" height="140" rx="5" class="limb"/>
  <text x="225" y="310" class="label" text-anchor="middle">R-Leg</text>
  <text x="225" y="325" class="label" text-anchor="middle">6 DOF</text>

  <!-- Feet -->
  <rect x="140" y="395" width="70" height="20" rx="5" class="box"/>
  <rect x="190" y="395" width="70" height="20" rx="5" class="box"/>

  <!-- Legend -->
  <text x="50" y="450" class="label">Total: 26+ DOF</text>
  <text x="50" y="470" class="label">Sensors: RGB-D, IMU, F/T, Tactile</text>
  <text x="50" y="490" class="label">Actuators: Electric Motors + SEA</text>
</svg>