<svg xmlns="http://www.w3.org/2000/svg" viewBox="0 0 600 400">
  <style>
    .title { font: bold 16px sans-serif; fill: #333; }
    .label { font: 12px sans-serif; fill: #666; }
    .small { font: 10px sans-serif; fill: #999; }
    .vision { fill: #bbdefb; stroke: #1976d2; stroke-width: 2; }
    .language { fill: #c8e6c9; stroke: #388e3c; stroke-width: 2; }
    .action { fill: #ffccbc; stroke: #e64a19; stroke-width: 2; }
    .transformer { fill: #f3e5f5; stroke: #7b1fa2; stroke-width: 2; }
    .arrow { stroke: #666; stroke-width: 2; fill: none; marker-end: url(#arrowhead); }
  </style>

  <defs>
    <marker id="arrowhead" markerWidth="10" markerHeight="7" refX="9" refY="3.5" orient="auto">
      <polygon points="0 0, 10 3.5, 0 7" fill="#666"/>
    </marker>
  </defs>

  <!-- Title -->
  <text x="300" y="30" class="title" text-anchor="middle">Vision-Language-Action (VLA) Architecture</text>

  <!-- Vision Encoder -->
  <rect x="50" y="60" width="120" height="80" rx="10" class="vision"/>
  <text x="110" y="95" class="label" text-anchor="middle">Vision Encoder</text>
  <text x="110" y="115" class="small" text-anchor="middle">(ViT / ResNet)</text>

  <!-- Language Encoder -->
  <rect x="50" y="160" width="120" height="80" rx="10" class="language"/>
  <text x="110" y="195" class="label" text-anchor="middle">Language Encoder</text>
  <text x="110" y="215" class="small" text-anchor="middle">(T5 / BERT)</text>

  <!-- Multimodal Transformer -->
  <rect x="230" y="100" width="140" height="120" rx="10" class="transformer"/>
  <text x="300" y="150" class="label" text-anchor="middle">Multimodal</text>
  <text x="300" y="170" class="label" text-anchor="middle">Transformer</text>
  <text x="300" y="190" class="small" text-anchor="middle">(Cross-Attention)</text>

  <!-- Action Decoder -->
  <rect x="430" y="100" width="120" height="120" rx="10" class="action"/>
  <text x="490" y="150" class="label" text-anchor="middle">Action Decoder</text>
  <text x="490" y="170" class="small" text-anchor="middle">(Autoregressive)</text>
  <text x="490" y="190" class="small" text-anchor="middle">[x,y,z,rx,ry,rz,g]</text>

  <!-- Arrows -->
  <path class="arrow" d="M 170 100 L 220 140"/>
  <path class="arrow" d="M 170 200 L 220 170"/>
  <path class="arrow" d="M 370 160 L 420 160"/>

  <!-- Input/Output Labels -->
  <text x="110" y="55" class="small" text-anchor="middle">RGB Images</text>
  <text x="110" y="255" class="small" text-anchor="middle">"Pick up the cup"</text>
  <text x="490" y="240" class="small" text-anchor="middle">Robot Actions</text>

  <!-- Bottom flow -->
  <rect x="50" y="290" width="500" height="60" rx="5" stroke="#ccc" stroke-width="1" fill="#fafafa"/>
  <text x="300" y="310" class="label" text-anchor="middle">End-to-End Training Pipeline</text>
  <text x="300" y="330" class="small" text-anchor="middle">Demonstration Data → Tokenization → Cross-Entropy Loss → Policy Gradient</text>
</svg>